<svg width="30" height="32" viewBox="0 0 30 32" fill="none" xmlns="http://www.w3.org/2000/svg">
<path d="M12.154 7.15935C11.7635 2.4854 7.07782 0.192038 6.87952 0.0984313C6.69414 0.0077471 6.48639 -0.0212264 6.28461 0.0154618C0.875227 0.949401 0.0615707 4.22564 0.0288609 4.36179C-0.0156421 4.55153 -0.00856391 4.7504 0.0493045 4.9362C6.50131 25.7679 19.9103 29.6292 24.3179 30.8993C24.6573 30.9971 24.9374 31.0759 25.15 31.1482C25.3926 31.2307 25.6562 31.2147 25.888 31.1035C26.0229 31.0397 29.208 29.4782 29.9869 24.3851C30.0215 24.1628 29.9871 23.9348 29.8888 23.7341C29.8193 23.5937 28.1531 20.2941 23.5329 19.1282C23.3761 19.0865 23.212 19.0851 23.0546 19.124C22.8972 19.1629 22.7512 19.241 22.6293 19.3516C21.1716 20.6472 19.158 22.0279 18.2891 22.1705C12.4647 19.207 9.21213 13.5204 9.08947 12.4417C9.01792 11.8354 10.3529 9.70588 11.8882 7.97416C11.9847 7.86517 12.0582 7.73637 12.104 7.59603C12.1497 7.4557 12.1668 7.30695 12.154 7.15935Z" fill="#2E3192"/>
</svg>
